<?xml version="1.0" standalone="no"?>
<!DOCTYPE svg PUBLIC "-//W3C//DTD SVG 20010904//EN"
 "http://www.w3.org/TR/2001/REC-SVG-20010904/DTD/svg10.dtd">
<svg version="1.0" xmlns="http://www.w3.org/2000/svg"
 width="1024.000000pt" height="1024.000000pt" viewBox="0 0 1024.000000 1024.000000"
 preserveAspectRatio="xMidYMid meet">

<g transform="translate(0.000000,1024.000000) scale(0.100000,-0.100000)"
fill="#000000" stroke="none">
<path d="M2885 8520 l-410 -5 -76 -27 c-253 -90 -420 -286 -472 -558 -15 -77
-17 -239 -13 -1825 4 -1947 -3 -1782 77 -1935 54 -105 117 -180 201 -244 106
-79 205 -122 332 -147 31 -6 377 -10 894 -10 l842 0 -5 -22 c-3 -12 -20 -85
-38 -162 -19 -77 -54 -241 -78 -364 l-44 -223 -75 5 c-240 16 -383 -41 -455
-183 -20 -39 -25 -64 -25 -123 0 -41 7 -94 15 -117 8 -23 15 -48 15 -54 0 -8
-76 -10 -274 -8 l-274 3 -21 -30 c-12 -16 -21 -39 -21 -51 0 -36 31 -90 54
-96 12 -3 946 -4 2076 -2 1595 2 2060 6 2076 15 12 7 29 30 38 52 18 46 10 83
-23 100 -12 7 -97 11 -218 11 -109 0 -221 3 -250 6 l-52 7 7 31 c4 17 7 65 6
106 -1 133 -70 242 -196 307 -49 25 -64 27 -200 31 l-146 4 -21 77 c-11 42
-29 121 -40 176 -26 130 -109 494 -115 503 -2 4 387 6 864 4 l869 -3 103 34
c143 46 227 98 325 200 65 68 91 104 127 179 79 163 74 9 69 1978 l-4 1763
-29 91 c-41 126 -91 207 -190 306 -92 92 -153 130 -285 177 l-80 28 -2225 0
c-1224 1 -2409 -2 -2635 -5z m912 -364 l-2 -174 -71 -6 c-66 -6 -214 -44 -309
-79 -96 -35 -260 -122 -332 -175 -95 -71 -229 -210 -282 -292 -86 -133 -168
-357 -191 -525 l-13 -90 -123 0 c-139 0 -149 -4 -149 -64 0 -66 11 -71 151
-71 l124 0 0 -39 c0 -56 27 -204 51 -274 32 -96 72 -173 148 -287 207 -310
513 -504 879 -557 l117 -17 -3 -45 c-4 -51 12 -206 23 -235 8 -18 -9 -18 -655
-13 l-663 6 -65 32 c-76 37 -176 132 -214 204 -35 65 -55 170 -68 341 -15 216
-25 903 -21 1529 3 682 3 681 103 812 50 65 138 126 227 155 59 20 94 23 336
28 149 3 435 7 637 8 l367 2 -2 -174z m1511 141 c98 -34 134 -60 193 -137 67
-88 89 -152 101 -289 6 -69 8 -533 5 -1185 -4 -1190 0 -1113 -72 -1256 -55
-109 -146 -176 -271 -200 -38 -7 -290 -13 -698 -17 l-639 -6 6 39 c4 21 7 87
7 145 l0 105 92 13 c111 14 370 97 475 151 40 21 111 63 157 94 150 100 328
322 407 506 26 62 89 339 89 393 0 23 4 25 68 30 37 4 93 7 124 7 67 0 88 16
88 65 0 57 -27 67 -165 63 -109 -3 -116 -2 -120 17 -2 11 -16 79 -31 150 -52
256 -175 479 -362 657 -96 91 -297 211 -442 263 -113 40 -268 75 -332 75 l-58
0 0 176 0 176 653 -4 652 -5 73 -26z m1193 -97 c76 -23 149 -76 201 -145 52
-69 73 -133 73 -230 0 -69 -4 -89 -31 -145 -62 -130 -169 -216 -300 -239 -164
-30 -340 62 -417 218 -30 61 -32 72 -32 171 0 93 3 111 26 160 87 182 289 270
480 210z m895 -104 c19 -19 34 -43 34 -54 0 -29 -38 -72 -65 -72 -30 0 -85 46
-85 71 0 20 56 89 72 89 6 0 25 -15 44 -34z m-270 6 c37 -30 47 -58 30 -90
-33 -63 -119 -64 -151 -1 -14 26 -14 32 0 59 26 51 80 65 121 32z m585 -11
c36 -36 37 -55 3 -86 -37 -34 -78 -33 -115 4 -16 16 -29 35 -29 41 0 22 58 70
85 70 16 0 38 -12 56 -29z m101 -271 c24 -30 23 -55 -4 -67 -15 -7 -157 -8
-403 -5 -323 4 -383 7 -397 20 -22 19 -23 46 -1 67 14 15 52 16 402 12 383 -5
385 -5 403 -27z m-3668 -44 c254 -68 450 -196 608 -395 106 -133 203 -359 215
-502 l6 -66 -77 -10 c-43 -6 -80 -14 -83 -17 -3 -3 -2 -25 3 -48 10 -48 25
-55 113 -57 l54 -1 -7 -61 c-19 -164 -78 -324 -170 -463 -74 -111 -125 -167
-217 -237 -106 -80 -200 -129 -344 -179 -95 -32 -263 -70 -318 -70 -4 0 -7 23
-6 50 3 61 -7 74 -54 65 -44 -9 -54 -20 -59 -65 -4 -42 -25 -48 -108 -30 -360
78 -589 224 -767 491 -92 139 -138 265 -159 442 l-6 57 48 0 c74 0 99 17 99
65 l0 40 -70 9 c-38 5 -71 10 -73 11 -2 2 6 55 17 118 25 138 63 244 133 374
109 203 348 385 603 462 148 45 193 51 360 47 135 -3 176 -8 259 -30z m3628
-168 c30 -21 36 -46 16 -66 -9 -9 -107 -12 -379 -12 -367 0 -368 0 -394 23
-25 22 -25 22 -7 52 l19 30 359 -3 c338 -4 360 -5 386 -24z m-13 -604 c6 -5
11 -299 13 -700 l3 -690 -105 1 -105 1 -6 284 c-10 447 -10 1084 0 1099 17 27
175 31 200 5z m-1435 -217 c18 -13 19 -42 17 -593 -1 -318 -3 -579 -4 -580 -1
0 -50 1 -109 4 l-108 4 0 583 c0 457 3 584 13 588 28 12 174 7 191 -6z m956
-91 c8 -11 13 -150 17 -524 3 -279 3 -519 0 -533 -6 -23 -9 -24 -110 -26
l-104 -2 -6 202 c-4 111 -7 351 -7 534 0 332 0 332 22 347 30 22 170 22 188 2z
m-490 -207 l33 -12 -7 -105 c-3 -58 -6 -253 -6 -434 l0 -328 -104 0 -104 0 -7
153 c-4 83 -5 278 -2 431 4 257 5 280 22 292 23 17 129 18 175 3z m802 -1456
l555 -6 1 -291 c1 -228 -3 -306 -15 -361 -39 -178 -167 -316 -375 -404 l-63
-26 -2540 -3 c-1739 -2 -2556 1 -2590 8 -27 6 -96 33 -152 60 -124 60 -191
123 -246 228 -61 115 -66 160 -60 491 l6 288 356 6 c196 4 903 5 1571 2 668
-2 1472 -1 1785 4 818 11 1140 12 1767 4z m-1818 -1305 c4 -24 45 -195 91
-380 47 -185 85 -340 85 -345 0 -4 -376 -7 -835 -5 -459 1 -835 3 -835 5 0 3
105 418 131 515 20 75 24 82 48 83 l26 2 -26 4 c-30 5 -30 6 -2 100 l15 51
585 0 c322 0 587 3 591 6 3 3 31 6 62 6 l57 0 7 -42z m-388 -912 l951 -4 66
-30 c76 -35 97 -65 97 -136 0 -36 -6 -52 -31 -81 l-31 -35 -1327 0 -1326 1
-27 57 c-40 83 -40 116 -2 162 59 69 108 77 449 73 127 -2 658 -5 1181 -7z"/>
<path d="M2522 8081 c-55 -5 -68 -10 -92 -38 -23 -26 -29 -44 -35 -105 -4 -41
-5 -118 -4 -171 4 -85 7 -98 28 -121 30 -32 78 -34 115 -5 26 20 26 21 26 156
l0 136 78 -6 c91 -7 167 4 190 27 23 23 22 89 -2 115 -17 19 -29 21 -130 19
-61 0 -140 -4 -174 -7z"/>
<path d="M2429 5897 c-32 -25 -39 -55 -39 -174 1 -165 9 -199 59 -245 l40 -38
149 0 c144 0 149 1 171 24 32 34 38 95 13 126 -20 24 -23 25 -140 22 l-120 -2
-4 131 c-3 123 -4 132 -27 150 -26 21 -78 25 -102 6z"/>
<path d="M4926 8065 c-34 -32 -35 -77 -1 -110 23 -24 29 -25 155 -25 l130 0
-6 -123 c-7 -121 -6 -123 18 -152 35 -40 90 -41 124 -1 23 26 24 34 24 177 0
247 -12 259 -256 259 -157 0 -162 -1 -188 -25z"/>
<path d="M5243 5890 c-18 -11 -34 -23 -34 -27 -1 -5 -4 -62 -8 -128 l-6 -120
-110 -2 c-139 -4 -150 -6 -165 -43 -15 -35 -8 -67 21 -103 l20 -27 163 0 c126
0 166 3 182 15 39 27 55 79 64 218 13 186 13 185 -15 212 -29 30 -68 32 -112
5z"/>
<path d="M6280 8090 c-75 -35 -110 -69 -141 -134 -56 -118 -32 -245 63 -332
67 -62 84 -68 173 -68 95 0 155 24 208 84 42 45 77 135 77 194 0 68 -26 139
-67 181 -79 81 -224 116 -313 75z m140 -169 c0 -52 3 -61 25 -75 14 -9 25 -23
25 -30 0 -21 -58 -66 -85 -66 -33 0 -85 46 -85 76 0 13 9 28 19 34 14 7 21 25
26 65 7 54 8 55 41 55 l34 0 0 -59z"/>
<path d="M3649 7277 c-70 -34 -106 -60 -183 -135 -55 -52 -102 -89 -108 -86
-7 4 -8 2 -4 -5 4 -6 0 -36 -9 -66 -42 -145 -47 -273 -16 -373 40 -130 153
-272 257 -325 158 -80 311 -91 472 -36 215 74 376 317 358 539 -12 148 -57
244 -166 351 -118 117 -272 180 -435 178 -72 -1 -88 -5 -166 -42z m14 -179
l20 -27 -22 -33 c-30 -43 -89 -88 -114 -88 -31 0 -57 29 -57 63 0 24 11 41 47
74 55 52 93 55 126 11z m284 -203 c33 -33 35 -39 31 -86 -8 -78 -67 -129 -151
-129 -115 0 -154 138 -62 219 31 27 43 31 91 31 51 0 59 -3 91 -35z"/>
<path d="M3085 6100 c10 -11 20 -20 23 -20 3 0 -3 9 -13 20 -10 11 -20 20 -23
20 -3 0 3 -9 13 -20z"/>
<path d="M7260 4874 c-56 -20 -69 -30 -138 -96 -102 -98 -141 -228 -108 -356
32 -126 86 -194 195 -246 59 -28 75 -31 156 -30 165 1 257 62 332 219 33 70
35 79 31 157 -5 106 -39 180 -117 258 -92 91 -245 132 -351 94z m162 -173
c135 -58 185 -258 87 -348 -81 -74 -214 -70 -285 9 -60 65 -75 176 -33 246 65
108 133 135 231 93z"/>
<path d="M7483 4449 c-22 -50 -18 -63 9 -31 20 22 29 54 20 68 -4 7 -16 -8
-29 -37z"/>
<path d="M5035 4767 c-115 -45 -191 -135 -215 -254 -29 -139 66 -303 201 -346
67 -22 93 -21 175 4 57 18 77 31 129 82 75 75 99 136 93 230 -5 80 -37 144
-103 206 -81 77 -199 110 -280 78z m134 -186 c49 -26 76 -82 68 -147 -6 -59
-33 -95 -85 -114 -37 -13 -47 -13 -84 0 -89 31 -117 139 -58 225 16 24 35 46
42 48 28 12 81 6 117 -12z"/>
<path d="M5163 4506 c0 -39 -4 -53 -22 -68 -16 -12 -19 -18 -8 -18 33 0 56 65
39 110 -8 21 -10 18 -9 -24z"/>
<path d="M5023 4455 c0 -8 4 -12 9 -9 4 3 8 1 8 -4 0 -10 60 -35 67 -28 2 2
-10 8 -27 14 -16 6 -33 18 -36 27 -8 19 -21 20 -21 0z"/>
<path d="M2645 4631 c-59 -26 -95 -73 -95 -123 0 -57 35 -114 85 -138 51 -25
69 -25 121 -1 110 50 123 191 24 259 -40 27 -81 28 -135 3z"/>
<path d="M3101 4632 c-95 -52 -96 -218 -2 -267 44 -22 108 -19 148 8 35 23 73
88 73 125 0 104 -130 183 -219 134z"/>
<path d="M2293 2510 c-50 -20 -57 -83 -14 -129 26 -28 35 -31 89 -31 101 0
120 7 132 49 27 99 9 121 -103 120 -45 0 -92 -4 -104 -9z"/>
<path d="M2646 2499 c-37 -29 -36 -85 2 -122 23 -22 37 -27 81 -27 47 0 57 4
87 34 39 39 43 72 13 110 -18 23 -27 26 -88 26 -54 0 -74 -4 -95 -21z"/>
<path d="M7405 2513 c-16 -2 -36 -12 -42 -21 -20 -25 -16 -86 8 -116 19 -24
26 -26 95 -26 70 0 78 2 105 29 34 34 38 74 10 110 -16 21 -28 25 -83 27 -34
1 -76 0 -93 -3z"/>
<path d="M7787 2511 c-42 -5 -72 -13 -78 -22 -12 -20 -11 -73 3 -104 12 -27
23 -31 108 -38 69 -6 92 1 131 37 37 36 37 79 -1 108 -32 23 -75 28 -163 19z"/>
</g>
</svg>
