<?xml version="1.0" standalone="no"?>
<!DOCTYPE svg PUBLIC "-//W3C//DTD SVG 20010904//EN"
 "http://www.w3.org/TR/2001/REC-SVG-20010904/DTD/svg10.dtd">
<svg version="1.0" xmlns="http://www.w3.org/2000/svg"
 width="576.000000pt" height="575.000000pt" viewBox="0 0 576.000000 575.000000"
 preserveAspectRatio="xMidYMid meet">

<g transform="translate(0.000000,575.000000) scale(0.100000,-0.100000)"
fill="#000000" stroke="none">
<path d="M4304 5220 c-319 -83 -576 -392 -573 -689 0 -47 4 -111 9 -141 l8
-55 -43 -40 c-68 -62 -80 -94 -80 -210 0 -55 6 -116 13 -137 32 -91 107 -151
202 -160 l45 -5 2 378 c1 423 5 453 65 573 47 94 116 170 215 236 103 69 168
91 288 97 192 10 335 -46 475 -186 99 -98 151 -191 170 -301 6 -38 12 -217 13
-425 l2 -360 54 -3 c44 -3 60 1 92 23 144 95 175 353 58 480 l-39 42 0 115 c0
139 -22 236 -82 358 -35 71 -59 102 -147 191 -95 95 -117 111 -211 158 -59 29
-135 58 -175 66 -99 21 -273 18 -361 -5z"/>
<path d="M945 5209 c-104 -4 -152 -10 -185 -24 -118 -49 -182 -116 -230 -240
-24 -60 -24 -61 -27 -630 -2 -313 0 -674 4 -801 l9 -231 33 -67 c37 -75 92
-125 188 -173 l58 -28 1205 0 1205 0 50 27 c66 35 119 89 153 157 l27 56 7
795 c4 515 3 816 -4 854 -25 149 -124 258 -271 301 -53 15 -146 17 -1070 13
-557 -1 -1075 -6 -1152 -9z m-35 -169 c-111 -14 -163 -48 -220 -144 -13 -22
-26 -34 -28 -27 -2 7 3 20 11 29 8 9 20 32 28 50 8 18 22 35 31 38 10 3 18 14
18 24 0 11 5 17 13 15 6 -3 35 2 62 9 28 8 70 14 95 14 45 -1 45 -1 -10 -8z
m1208 -75 c9 -3 12 -36 12 -118 l0 -114 32 -7 c17 -3 55 -18 85 -33 l53 -27
78 77 c43 42 82 77 88 77 7 0 63 -55 125 -122 l114 -123 -55 -51 c-30 -28 -67
-59 -82 -69 -16 -9 -28 -22 -28 -29 0 -6 13 -45 29 -86 l30 -75 103 3 c57 1
108 -1 115 -5 7 -6 12 -57 13 -158 1 -83 1 -156 1 -162 -1 -9 -22 -13 -70 -13
-37 0 -89 -3 -115 -6 -39 -6 -47 -11 -52 -33 -4 -14 -18 -48 -33 -74 l-26 -48
30 -26 c17 -14 57 -51 90 -81 l59 -55 -112 -108 c-62 -60 -119 -109 -125 -109
-7 0 -49 34 -94 75 -81 75 -83 76 -110 61 -16 -8 -54 -22 -86 -31 l-57 -16 0
-103 c0 -66 -4 -106 -12 -114 -17 -17 -279 -17 -296 0 -8 8 -12 48 -12 114 l0
102 -32 7 c-18 4 -57 20 -85 36 l-53 29 -76 -80 c-42 -44 -82 -80 -89 -80 -17
0 -197 171 -214 203 -13 25 -11 28 66 106 l80 79 -28 64 c-16 34 -29 69 -29
76 0 9 -27 12 -103 12 -67 0 -107 4 -115 12 -8 8 -12 58 -12 159 0 118 3 149
15 159 11 9 39 11 103 6 100 -8 101 -8 121 64 7 25 21 56 31 70 l18 26 -81 69
c-44 39 -82 75 -84 81 -4 12 188 219 218 235 16 8 31 -2 96 -67 l76 -76 36 20
c20 11 60 27 89 37 l52 17 0 109 c0 104 1 110 22 118 21 7 259 4 286 -4z"/>
<path d="M1863 4496 c-108 -35 -203 -122 -256 -234 -29 -61 -32 -75 -32 -167
0 -92 3 -105 33 -169 49 -105 91 -149 179 -193 73 -36 82 -38 172 -38 160 0
259 48 334 163 102 155 108 287 21 452 -68 130 -166 189 -324 196 -55 3 -100
-1 -127 -10z"/>
<path d="M4204 4759 c-3 -6 -3 -76 1 -156 l7 -144 -68 6 c-75 6 -96 -2 -112
-46 -6 -14 -6 -152 -2 -336 7 -274 10 -316 26 -350 28 -57 75 -83 146 -83 78
0 114 17 169 78 80 89 79 80 72 402 -3 157 -10 293 -15 304 -8 15 -17 17 -54
11 l-44 -6 0 146 c0 82 -5 155 -10 166 -8 15 -21 19 -60 19 -27 0 -52 -5 -56
-11z m-19 -473 c-14 -10 -15 -40 -13 -223 3 -189 1 -211 -12 -197 -12 12 -16
56 -20 222 -3 114 -4 210 -3 213 1 3 16 4 33 1 26 -4 28 -6 15 -16z"/>
<path d="M5741 4634 c0 -11 3 -14 6 -6 3 7 2 16 -1 19 -3 4 -6 -2 -5 -13z"/>
<path d="M4762 4511 c-18 -5 -42 -17 -52 -26 -19 -17 -20 -33 -20 -372 0 -376
2 -395 49 -442 16 -16 34 -21 75 -21 67 0 99 12 131 46 l25 27 0 359 0 358
-32 35 c-28 30 -41 36 -88 39 -30 3 -70 1 -88 -3z"/>
<path d="M4104 3251 c-6 -6 -5 -249 3 -476 l6 -200 424 3 423 2 -1 268 c-1
147 -4 299 -8 337 l-6 70 -418 0 c-230 0 -421 -2 -423 -4z m344 -323 l-3 -91
-80 2 c-48 2 -83 7 -87 14 -4 7 -8 47 -8 90 l0 77 90 0 91 0 -3 -92z m342 2
l0 -90 -79 0 c-63 0 -80 3 -85 16 -8 21 -8 149 1 157 3 4 42 7 85 7 l78 0 0
-90z"/>
<path d="M776 2834 c-75 -15 -126 -46 -184 -109 -40 -44 -56 -71 -72 -123 -18
-64 -19 -105 -22 -827 l-3 -760 29 -60 c36 -73 142 -182 208 -214 l48 -23
1232 -1 1233 -2 48 28 c66 39 120 98 159 176 l33 66 0 300 c0 815 -8 1270 -22
1320 -41 140 -139 220 -283 231 -135 11 -2352 9 -2404 -2z m1442 -260 c19 -6
22 -13 22 -63 0 -31 -4 -63 -9 -71 -13 -19 -151 -25 -356 -15 l-154 7 -7 44
c-3 24 -3 55 0 69 6 24 9 24 109 28 206 6 373 7 395 1z m462 -4 c18 -11 21
-133 4 -150 -7 -7 -45 -8 -120 -3 l-109 8 -3 58 c-2 34 2 65 8 72 16 19 194
31 220 15z m-1595 -17 c13 -13 16 -29 13 -70 -3 -29 -7 -55 -10 -58 -7 -7 -57
-9 -170 -7 l-96 2 -11 31 c-16 48 -14 67 14 94 23 24 31 25 134 25 89 0 113
-3 126 -17z m435 -44 c0 -95 -4 -99 -115 -99 -83 0 -96 2 -105 19 -15 29 -12
93 6 119 14 20 23 22 115 22 l99 0 0 -61z m1622 44 c19 -17 25 -96 10 -121 -7
-9 -39 -12 -128 -10 l-119 3 -3 59 c-2 32 -1 65 2 72 8 22 213 20 238 -3z
m-2064 -355 c12 -12 16 -95 6 -122 -9 -23 -235 -24 -258 0 -22 22 -30 58 -19
91 8 23 17 29 49 34 73 11 209 10 222 -3z m400 -66 l3 -73 -98 3 -98 3 -3 58
c-4 83 3 88 107 85 l86 -3 3 -73z m838 67 c3 -6 9 -40 12 -75 l5 -64 -324 2
-324 3 0 65 c0 60 2 65 25 71 44 12 598 10 606 -2z m379 -64 l0 -70 -85 0 -85
0 -3 64 c-2 45 1 67 10 73 7 4 47 7 88 6 l75 -3 0 -70z m445 62 c20 -10 26
-21 28 -59 5 -71 -8 -78 -138 -78 -122 0 -120 -1 -120 80 0 36 5 52 18 59 25
15 182 13 212 -2z m-1945 -493 c77 -38 149 -109 183 -182 23 -50 26 -70 26
-162 1 -99 -1 -109 -31 -170 -78 -158 -238 -248 -391 -220 -170 31 -300 163
-331 335 -25 140 50 314 165 381 74 44 121 54 224 51 81 -3 104 -7 155 -33z
m1948 -2 c79 -39 137 -101 181 -192 28 -59 31 -74 31 -160 0 -82 -4 -103 -27
-153 -37 -80 -117 -160 -197 -200 -59 -29 -74 -32 -156 -32 -81 0 -97 3 -158
32 -85 40 -168 122 -205 200 -24 51 -27 70 -27 158 0 88 3 107 27 158 29 62
115 160 163 185 63 33 110 42 206 39 85 -2 103 -6 162 -35z m-857 -13 c21 -16
50 -46 64 -66 l25 -36 0 -246 c0 -273 -2 -283 -69 -333 -30 -22 -39 -22 -301
-26 l-270 -4 -51 54 c-50 53 -51 56 -57 128 -4 41 -9 150 -13 241 -8 203 -3
224 69 279 l52 40 256 0 256 0 39 -31z"/>
<path d="M934 1581 c-55 -25 -111 -94 -131 -161 -30 -104 14 -213 112 -274
137 -86 307 -3 346 167 41 184 -156 345 -327 268z m137 -144 c46 -31 60 -61
47 -99 -11 -32 -60 -68 -92 -68 -25 0 -96 72 -96 98 0 21 72 92 94 92 7 0 28
-10 47 -23z"/>
<path d="M2884 1586 c-116 -51 -178 -186 -142 -310 16 -55 110 -150 164 -165
80 -22 155 -5 218 50 142 125 109 340 -64 418 -52 24 -130 27 -176 7z m114
-150 c36 -19 59 -45 67 -78 10 -39 -39 -88 -88 -88 -53 0 -97 41 -97 90 0 30
6 44 31 64 35 30 49 32 87 12z"/>
<path d="M1890 1518 c0 -2 -3 -81 -5 -175 -6 -201 -6 -201 86 -132 30 22 89
59 131 81 l77 41 -132 87 c-148 97 -157 102 -157 98z"/>
<path d="M4183 2423 c-262 -3 -263 -3 -268 -26 -3 -12 -4 -323 -3 -692 l3
-670 34 -63 c39 -72 80 -110 161 -148 46 -22 72 -27 160 -30 l105 -3 1 -133
c2 -174 0 -161 33 -197 26 -27 35 -31 83 -31 57 0 119 24 156 60 22 21 23 28
21 162 l-1 140 102 3 c90 3 108 6 165 34 76 38 123 89 170 186 l35 70 0 600
c1 330 1 633 1 673 l-1 72 -347 -2 c-192 -2 -466 -4 -610 -5z m399 -293 l37
-31 -5 -205 c-5 -202 -5 -207 16 -221 34 -24 21 -54 -40 -90 -30 -18 -66 -33
-81 -33 -50 0 -53 15 -41 188 7 86 9 209 5 272 -5 101 -4 118 11 133 25 25 57
21 98 -13z m-208 -180 c22 -55 21 -61 -19 -99 -50 -47 -77 -105 -83 -177 -21
-264 269 -404 454 -220 65 66 88 128 82 227 -3 61 -8 75 -46 128 -23 33 -42
66 -42 73 0 7 14 29 30 48 l29 35 50 -49 c93 -91 127 -215 97 -355 -46 -217
-245 -360 -450 -322 -164 30 -280 136 -322 295 -18 67 -18 190 1 252 28 96
124 204 180 204 17 0 27 -10 39 -40z"/>
<path d="M5054 85 c-10 -8 -14 -14 -9 -15 15 0 40 18 34 24 -3 3 -14 -1 -25
-9z"/>
<path d="M4698 3 c7 -3 16 -2 19 1 4 3 -2 6 -13 5 -11 0 -14 -3 -6 -6z"/>
</g>
</svg>
